<svg xmlns="http://www.w3.org/2000/svg" viewBox="0 0 256 256" width="100%" height="100%">
  <defs>
    <filter id="shadow" x="-10%" y="-10%" width="120%" height="130%">
      <feDropShadow dx="0" dy="8" stdDeviation="6" flood-color="#000000" flood-opacity="0.3"/>
    </filter>
    
    <linearGradient id="redBody" x1="0%" y1="0%" x2="0%" y2="100%">
      <stop offset="0%" stop-color="#E53935"/>
      <stop offset="100%" stop-color="#B71C1C"/>
    </linearGradient>

    <linearGradient id="bevel" x1="0%" y1="0%" x2="0%" y2="100%">
      <stop offset="0%" stop-color="#991B1B"/>
      <stop offset="100%" stop-color="#5C1010"/>
    </linearGradient>
  </defs>

  <g filter="url(#shadow)">
    <path d="M 44,40 
             A 16,16 0 0,1 60,24 
             L 196,24 
             A 16,16 0 0,1 212,40 
             L 212,184 
             A 16,16 0 0,1 196,200 
             L 148,200 
             L 128,228 
             L 108,200 
             L 60,200 
             A 16,16 0 0,1 44,184 
             Z" 
          fill="url(#bevel)" />

    <path d="M 44,36 
             A 16,16 0 0,1 60,20 
             L 196,20 
             A 16,16 0 0,1 212,36 
             L 212,176 
             A 16,16 0 0,1 196,192 
             L 148,192 
             L 128,220 
             L 108,192 
             L 60,192 
             A 16,16 0 0,1 44,176 
             Z" 
          fill="url(#redBody)" />
  </g>

  <circle cx="128" cy="48" r="10" fill="#991B1B" opacity="0.4"/>
  <circle cx="128" cy="48" r="5" fill="#FFFFFF" opacity="0.9"/>

  <g fill="#FFFFFF" opacity="0.4" stroke="none">
    <rect x="76" y="80" width="60" height="8" rx="4" />
    <rect x="76" y="98" width="104" height="8" rx="4" />
    <rect x="76" y="116" width="104" height="12" rx="6" fill="#FFFFFF" opacity="0.8" />
    <rect x="76" y="136" width="80" height="8" rx="4" />
  </g>

  <path d="M 128,43 C 128,30 135,15 146,6" 
        stroke="#B71C1C" 
        stroke-width="3" 
        stroke-linecap="round" 
        fill="none" />
</svg>
